<svg width="244" height="54" viewBox="0 0 244 54" fill="none" xmlns="http://www.w3.org/2000/svg">
<rect width="244" height="54" rx="16" fill="#F8F8F8"/>
<path d="M59.56 27.25C59.56 26.47 59.49 25.72 59.36 25H49V29.255H54.92C54.665 30.63 53.89 31.795 52.725 32.575V35.335H56.28C58.36 33.42 59.56 30.6 59.56 27.25Z" fill="#4285F4"/>
<path d="M48.9999 38C51.9699 38 54.4599 37.015 56.2799 35.335L52.7249 32.575C51.7399 33.235 50.4799 33.625 48.9999 33.625C46.1349 33.625 43.7099 31.69 42.8449 29.09H39.1699V31.94C40.9799 35.535 44.6999 38 48.9999 38Z" fill="#34A853"/>
<path d="M42.845 29.0901C42.625 28.4301 42.5 27.7251 42.5 27.0001C42.5 26.2751 42.625 25.5701 42.845 24.9101V22.0601H39.17C38.4 23.5929 37.9993 25.2847 38 27.0001C38 28.7751 38.425 30.4551 39.17 31.9401L42.845 29.0901Z" fill="#FBBC05"/>
<path d="M48.9999 20.375C50.6149 20.375 52.0649 20.93 53.2049 22.02L56.3599 18.865C54.4549 17.09 51.9649 16 48.9999 16C44.6999 16 40.9799 18.465 39.1699 22.06L42.8449 24.91C43.7099 22.31 46.1349 20.375 48.9999 20.375Z" fill="#EA4335"/>
<path d="M78.7289 32.14C78.0196 32.14 77.3616 32.014 76.7549 31.762C76.1576 31.5007 75.6349 31.1413 75.1869 30.684C74.7389 30.2173 74.3936 29.6807 74.1509 29.074C73.9082 28.458 73.7869 27.8 73.7869 27.1C73.7869 26.4 73.9082 25.7467 74.1509 25.14C74.3936 24.524 74.7389 23.9873 75.1869 23.53C75.6349 23.0727 76.1576 22.7133 76.7549 22.452C77.3616 22.1907 78.0196 22.06 78.7289 22.06C79.5222 22.06 80.2082 22.1907 80.7869 22.452C81.3656 22.7133 81.8789 23.068 82.3269 23.516L81.2349 24.608C80.9456 24.2907 80.5909 24.0433 80.1709 23.866C79.7602 23.6887 79.2796 23.6 78.7289 23.6C78.2436 23.6 77.8002 23.684 77.3989 23.852C76.9976 24.02 76.6476 24.2627 76.3489 24.58C76.0596 24.888 75.8356 25.2567 75.6769 25.686C75.5182 26.1153 75.4389 26.5867 75.4389 27.1C75.4389 27.6133 75.5182 28.0847 75.6769 28.514C75.8356 28.9433 76.0596 29.3167 76.3489 29.634C76.6476 29.942 76.9976 30.18 77.3989 30.348C77.8002 30.516 78.2436 30.6 78.7289 30.6C79.3262 30.6 79.8302 30.5113 80.2409 30.334C80.6609 30.1473 81.0156 29.8953 81.3049 29.578L82.3969 30.67C81.9489 31.1273 81.4216 31.4867 80.8149 31.748C80.2082 32.0093 79.5129 32.14 78.7289 32.14ZM86.4985 32.14C85.8451 32.14 85.2525 31.986 84.7205 31.678C84.1885 31.3607 83.7638 30.936 83.4465 30.404C83.1385 29.872 82.9845 29.2793 82.9845 28.626C82.9845 27.9727 83.1385 27.3847 83.4465 26.862C83.7638 26.3393 84.1885 25.924 84.7205 25.616C85.2525 25.2987 85.8451 25.14 86.4985 25.14C87.1611 25.14 87.7585 25.294 88.2905 25.602C88.8225 25.91 89.2425 26.33 89.5505 26.862C89.8678 27.3847 90.0265 27.9727 90.0265 28.626C90.0265 29.2793 89.8678 29.872 89.5505 30.404C89.2425 30.936 88.8225 31.3607 88.2905 31.678C87.7585 31.986 87.1611 32.14 86.4985 32.14ZM86.4985 30.656C86.8811 30.656 87.2171 30.572 87.5065 30.404C87.8051 30.2267 88.0338 29.984 88.1925 29.676C88.3605 29.368 88.4445 29.018 88.4445 28.626C88.4445 28.234 88.3605 27.8887 88.1925 27.59C88.0245 27.2913 87.7958 27.058 87.5065 26.89C87.2171 26.7127 86.8811 26.624 86.4985 26.624C86.1251 26.624 85.7891 26.7127 85.4905 26.89C85.2011 27.058 84.9725 27.2913 84.8045 27.59C84.6458 27.8887 84.5665 28.234 84.5665 28.626C84.5665 29.018 84.6458 29.368 84.8045 29.676C84.9725 29.984 85.2011 30.2267 85.4905 30.404C85.7891 30.572 86.1251 30.656 86.4985 30.656ZM95.9131 32V28.122C95.9131 27.674 95.7685 27.3053 95.4791 27.016C95.1991 26.7267 94.8351 26.582 94.3871 26.582C94.0885 26.582 93.8225 26.6473 93.5891 26.778C93.3558 26.9087 93.1738 27.0907 93.0431 27.324C92.9125 27.5573 92.8471 27.8233 92.8471 28.122L92.2451 27.786C92.2451 27.2727 92.3571 26.82 92.5811 26.428C92.8051 26.0267 93.1131 25.714 93.5051 25.49C93.9065 25.2567 94.3545 25.14 94.8491 25.14C95.3531 25.14 95.8011 25.2707 96.1931 25.532C96.5851 25.784 96.8931 26.1153 97.1171 26.526C97.3411 26.9273 97.4531 27.3473 97.4531 27.786V32H95.9131ZM91.3071 32V25.28H92.8471V32H91.3071ZM99.958 32V22.48H101.498V32H99.958ZM98.348 26.68V25.28H103.108V26.68H98.348ZM104.241 32V25.28H105.781V32H104.241ZM105.011 24.048C104.75 24.048 104.53 23.9593 104.353 23.782C104.185 23.6047 104.101 23.3853 104.101 23.124C104.101 22.8627 104.185 22.6433 104.353 22.466C104.53 22.2887 104.75 22.2 105.011 22.2C105.282 22.2 105.501 22.2887 105.669 22.466C105.837 22.6433 105.921 22.8627 105.921 23.124C105.921 23.3853 105.837 23.6047 105.669 23.782C105.501 23.9593 105.282 24.048 105.011 24.048ZM112.114 32V28.122C112.114 27.674 111.97 27.3053 111.68 27.016C111.4 26.7267 111.036 26.582 110.588 26.582C110.29 26.582 110.024 26.6473 109.79 26.778C109.557 26.9087 109.375 27.0907 109.244 27.324C109.114 27.5573 109.048 27.8233 109.048 28.122L108.446 27.786C108.446 27.2727 108.558 26.82 108.782 26.428C109.006 26.0267 109.314 25.714 109.706 25.49C110.108 25.2567 110.556 25.14 111.05 25.14C111.554 25.14 112.002 25.2707 112.394 25.532C112.786 25.784 113.094 26.1153 113.318 26.526C113.542 26.9273 113.654 27.3473 113.654 27.786V32H112.114ZM107.508 32V25.28H109.048V32H107.508ZM117.977 32.14C117.408 32.14 116.899 32.014 116.451 31.762C116.013 31.51 115.667 31.1647 115.415 30.726C115.173 30.278 115.051 29.7647 115.051 29.186V25.28H116.591V29.116C116.591 29.4427 116.643 29.7227 116.745 29.956C116.857 30.18 117.016 30.3527 117.221 30.474C117.436 30.5953 117.688 30.656 117.977 30.656C118.425 30.656 118.766 30.5253 118.999 30.264C119.242 29.9933 119.363 29.6107 119.363 29.116V25.28H120.903V29.186C120.903 29.774 120.777 30.292 120.525 30.74C120.283 31.1787 119.942 31.524 119.503 31.776C119.065 32.0187 118.556 32.14 117.977 32.14ZM125.574 32.14C124.902 32.14 124.295 31.9907 123.754 31.692C123.222 31.384 122.797 30.964 122.48 30.432C122.172 29.9 122.018 29.3027 122.018 28.64C122.018 27.9773 122.172 27.3847 122.48 26.862C122.788 26.33 123.203 25.91 123.726 25.602C124.258 25.294 124.846 25.14 125.49 25.14C126.115 25.14 126.666 25.2847 127.142 25.574C127.627 25.8633 128.005 26.26 128.276 26.764C128.556 27.268 128.696 27.842 128.696 28.486C128.696 28.598 128.686 28.7147 128.668 28.836C128.658 28.948 128.64 29.074 128.612 29.214H123.096V27.954H127.814L127.24 28.458C127.221 28.0473 127.142 27.702 127.002 27.422C126.862 27.142 126.661 26.9273 126.4 26.778C126.148 26.6287 125.835 26.554 125.462 26.554C125.07 26.554 124.729 26.638 124.44 26.806C124.15 26.974 123.926 27.212 123.768 27.52C123.609 27.8187 123.53 28.178 123.53 28.598C123.53 29.018 123.614 29.3867 123.782 29.704C123.95 30.0213 124.188 30.2687 124.496 30.446C124.804 30.614 125.158 30.698 125.56 30.698C125.905 30.698 126.222 30.6373 126.512 30.516C126.81 30.3947 127.062 30.2173 127.268 29.984L128.248 30.978C127.921 31.3607 127.524 31.65 127.058 31.846C126.591 32.042 126.096 32.14 125.574 32.14ZM134.693 32L131.991 25.28H133.587L135.407 30.166L134.931 30.18L136.709 25.28H137.605L139.383 30.18L138.907 30.166L140.727 25.28H142.323L139.621 32H138.725L136.905 27.352H137.409L135.589 32H134.693ZM143.192 32V25.28H144.732V32H143.192ZM143.962 24.048C143.701 24.048 143.482 23.9593 143.304 23.782C143.136 23.6047 143.052 23.3853 143.052 23.124C143.052 22.8627 143.136 22.6433 143.304 22.466C143.482 22.2887 143.701 22.2 143.962 22.2C144.233 22.2 144.452 22.2887 144.62 22.466C144.788 22.6433 144.872 22.8627 144.872 23.124C144.872 23.3853 144.788 23.6047 144.62 23.782C144.452 23.9593 144.233 24.048 143.962 24.048ZM147.481 32V22.48H149.021V32H147.481ZM145.871 26.68V25.28H150.631V26.68H145.871ZM156.356 32V28.122C156.356 27.674 156.212 27.3053 155.922 27.016C155.642 26.7267 155.278 26.582 154.83 26.582C154.532 26.582 154.266 26.6473 154.032 26.778C153.799 26.9087 153.617 27.0907 153.486 27.324C153.356 27.5573 153.29 27.8233 153.29 28.122L152.688 27.786C152.688 27.2727 152.8 26.82 153.024 26.428C153.248 26.0267 153.556 25.714 153.948 25.49C154.35 25.2567 154.798 25.14 155.292 25.14C155.796 25.14 156.244 25.252 156.636 25.476C157.028 25.7 157.336 26.0127 157.56 26.414C157.784 26.806 157.896 27.2633 157.896 27.786V32H156.356ZM151.75 32V21.92H153.29V32H151.75ZM166.898 32.14C166.226 32.14 165.591 32.0093 164.994 31.748C164.397 31.4867 163.874 31.1273 163.426 30.67C162.978 30.2033 162.623 29.6667 162.362 29.06C162.11 28.444 161.984 27.786 161.984 27.086C161.984 26.386 162.11 25.7327 162.362 25.126C162.623 24.5193 162.978 23.9873 163.426 23.53C163.883 23.0633 164.415 22.704 165.022 22.452C165.638 22.1907 166.301 22.06 167.01 22.06C167.785 22.06 168.503 22.2093 169.166 22.508C169.829 22.8067 170.384 23.2313 170.832 23.782L169.74 24.874C169.451 24.4633 169.063 24.1507 168.578 23.936C168.093 23.712 167.57 23.6 167.01 23.6C166.338 23.6 165.745 23.7493 165.232 24.048C164.728 24.3373 164.336 24.7433 164.056 25.266C163.776 25.7887 163.636 26.3953 163.636 27.086C163.636 27.7767 163.776 28.388 164.056 28.92C164.345 29.4427 164.733 29.8533 165.218 30.152C165.703 30.4507 166.254 30.6 166.87 30.6C167.523 30.6 168.083 30.4833 168.55 30.25C169.026 30.0073 169.39 29.6527 169.642 29.186C169.894 28.71 170.02 28.1267 170.02 27.436L171.028 28.164H166.842V26.694H171.686V26.918C171.686 28.0847 171.476 29.0553 171.056 29.83C170.645 30.6047 170.081 31.1833 169.362 31.566C168.643 31.9487 167.822 32.14 166.898 32.14ZM176.159 32.14C175.505 32.14 174.913 31.986 174.381 31.678C173.849 31.3607 173.424 30.936 173.107 30.404C172.799 29.872 172.645 29.2793 172.645 28.626C172.645 27.9727 172.799 27.3847 173.107 26.862C173.424 26.3393 173.849 25.924 174.381 25.616C174.913 25.2987 175.505 25.14 176.159 25.14C176.821 25.14 177.419 25.294 177.951 25.602C178.483 25.91 178.903 26.33 179.211 26.862C179.528 27.3847 179.687 27.9727 179.687 28.626C179.687 29.2793 179.528 29.872 179.211 30.404C178.903 30.936 178.483 31.3607 177.951 31.678C177.419 31.986 176.821 32.14 176.159 32.14ZM176.159 30.656C176.541 30.656 176.877 30.572 177.167 30.404C177.465 30.2267 177.694 29.984 177.853 29.676C178.021 29.368 178.105 29.018 178.105 28.626C178.105 28.234 178.021 27.8887 177.853 27.59C177.685 27.2913 177.456 27.058 177.167 26.89C176.877 26.7127 176.541 26.624 176.159 26.624C175.785 26.624 175.449 26.7127 175.151 26.89C174.861 27.058 174.633 27.2913 174.465 27.59C174.306 27.8887 174.227 28.234 174.227 28.626C174.227 29.018 174.306 29.368 174.465 29.676C174.633 29.984 174.861 30.2267 175.151 30.404C175.449 30.572 175.785 30.656 176.159 30.656ZM184.047 32.14C183.394 32.14 182.801 31.986 182.269 31.678C181.737 31.3607 181.313 30.936 180.995 30.404C180.687 29.872 180.533 29.2793 180.533 28.626C180.533 27.9727 180.687 27.3847 180.995 26.862C181.313 26.3393 181.737 25.924 182.269 25.616C182.801 25.2987 183.394 25.14 184.047 25.14C184.71 25.14 185.307 25.294 185.839 25.602C186.371 25.91 186.791 26.33 187.099 26.862C187.417 27.3847 187.575 27.9727 187.575 28.626C187.575 29.2793 187.417 29.872 187.099 30.404C186.791 30.936 186.371 31.3607 185.839 31.678C185.307 31.986 184.71 32.14 184.047 32.14ZM184.047 30.656C184.43 30.656 184.766 30.572 185.055 30.404C185.354 30.2267 185.583 29.984 185.741 29.676C185.909 29.368 185.993 29.018 185.993 28.626C185.993 28.234 185.909 27.8887 185.741 27.59C185.573 27.2913 185.345 27.058 185.055 26.89C184.766 26.7127 184.43 26.624 184.047 26.624C183.674 26.624 183.338 26.7127 183.039 26.89C182.75 27.058 182.521 27.2913 182.353 27.59C182.195 27.8887 182.115 28.234 182.115 28.626C182.115 29.018 182.195 29.368 182.353 29.676C182.521 29.984 182.75 30.2267 183.039 30.404C183.338 30.572 183.674 30.656 184.047 30.656ZM191.656 34.94C190.947 34.94 190.326 34.8093 189.794 34.548C189.262 34.296 188.833 33.9367 188.506 33.47L189.514 32.462C189.785 32.798 190.093 33.05 190.438 33.218C190.783 33.386 191.199 33.47 191.684 33.47C192.291 33.47 192.771 33.3113 193.126 32.994C193.481 32.686 193.658 32.2613 193.658 31.72V30.068L193.924 28.584L193.658 27.086V25.28H195.198V31.72C195.198 32.364 195.049 32.924 194.75 33.4C194.451 33.8853 194.036 34.2633 193.504 34.534C192.972 34.8047 192.356 34.94 191.656 34.94ZM191.586 31.86C190.989 31.86 190.447 31.7153 189.962 31.426C189.486 31.1273 189.108 30.7213 188.828 30.208C188.557 29.6947 188.422 29.1207 188.422 28.486C188.422 27.8513 188.557 27.282 188.828 26.778C189.108 26.274 189.486 25.8773 189.962 25.588C190.447 25.2893 190.989 25.14 191.586 25.14C192.118 25.14 192.585 25.2473 192.986 25.462C193.387 25.6767 193.7 25.9753 193.924 26.358C194.148 26.7313 194.26 27.17 194.26 27.674V29.326C194.26 29.8207 194.143 30.2593 193.91 30.642C193.686 31.0247 193.373 31.3233 192.972 31.538C192.571 31.7527 192.109 31.86 191.586 31.86ZM191.894 30.404C192.267 30.404 192.594 30.3247 192.874 30.166C193.154 30.0073 193.369 29.788 193.518 29.508C193.677 29.2187 193.756 28.8827 193.756 28.5C193.756 28.1173 193.677 27.786 193.518 27.506C193.369 27.2167 193.154 26.9927 192.874 26.834C192.594 26.6753 192.267 26.596 191.894 26.596C191.521 26.596 191.189 26.6753 190.9 26.834C190.62 26.9927 190.401 27.2167 190.242 27.506C190.083 27.786 190.004 28.1173 190.004 28.5C190.004 28.8733 190.083 29.2047 190.242 29.494C190.401 29.7833 190.62 30.0073 190.9 30.166C191.189 30.3247 191.521 30.404 191.894 30.404ZM196.909 32V21.92H198.449V32H196.909ZM203.285 32.14C202.613 32.14 202.006 31.9907 201.465 31.692C200.933 31.384 200.508 30.964 200.191 30.432C199.883 29.9 199.729 29.3027 199.729 28.64C199.729 27.9773 199.883 27.3847 200.191 26.862C200.499 26.33 200.914 25.91 201.437 25.602C201.969 25.294 202.557 25.14 203.201 25.14C203.826 25.14 204.377 25.2847 204.853 25.574C205.338 25.8633 205.716 26.26 205.987 26.764C206.267 27.268 206.407 27.842 206.407 28.486C206.407 28.598 206.397 28.7147 206.379 28.836C206.369 28.948 206.351 29.074 206.323 29.214H200.807V27.954H205.525L204.951 28.458C204.932 28.0473 204.853 27.702 204.713 27.422C204.573 27.142 204.372 26.9273 204.111 26.778C203.859 26.6287 203.546 26.554 203.173 26.554C202.781 26.554 202.44 26.638 202.151 26.806C201.861 26.974 201.637 27.212 201.479 27.52C201.32 27.8187 201.241 28.178 201.241 28.598C201.241 29.018 201.325 29.3867 201.493 29.704C201.661 30.0213 201.899 30.2687 202.207 30.446C202.515 30.614 202.869 30.698 203.271 30.698C203.616 30.698 203.933 30.6373 204.223 30.516C204.521 30.3947 204.773 30.2173 204.979 29.984L205.959 30.978C205.632 31.3607 205.235 31.65 204.769 31.846C204.302 32.042 203.807 32.14 203.285 32.14Z" fill="#001A2B"/>
</svg>
