<svg width="56" height="56" viewBox="0 0 56 56" fill="none" xmlns="http://www.w3.org/2000/svg">
<rect width="56" height="56" rx="28" fill="white" fill-opacity="0.1"/>
<path d="M17.003 15.8971C21.1764 13.3371 24.9203 14.3574 27.1821 16.0559C27.5542 16.3353 27.8095 16.5266 27.9996 16.6557C28.1898 16.5266 28.4451 16.3353 28.8172 16.0559C31.079 14.3574 34.8229 13.3371 38.9963 15.8971C41.882 17.6672 43.5058 21.3647 42.936 25.613C42.3634 29.8818 39.6004 34.7099 33.749 39.041C31.717 40.5458 30.2257 41.6503 27.9996 41.6503C25.7736 41.6503 24.2823 40.5458 22.2503 39.041C16.3989 34.7099 13.6359 29.8818 13.0633 25.613C12.4935 21.3647 14.1173 17.6672 17.003 15.8971Z" fill="white"/>
</svg>
