<svg width="133" height="56" viewBox="0 0 133 56" fill="none" xmlns="http://www.w3.org/2000/svg">
<path fill-rule="evenodd" clip-rule="evenodd" d="M56.6745 2.09719C56.354 3.92011 57.1212 3.79662 55.7142 5.73598C55.3357 6.25782 54.1803 6.78767 54.1493 7.20764C54.1125 7.70833 54.2381 8.06135 54.1402 8.63589C54.0974 8.88672 54.0247 9.08005 54.0785 9.3533C54.1293 9.61102 54.2515 9.67572 54.1354 9.94673C54.0414 10.1663 53.9184 10.2189 53.981 10.5366C54.0339 10.804 54.1767 10.7928 54.2424 11.0289C53.8517 11.5664 53.8026 11.2052 53.3651 12.2742C53.0944 12.9359 53.5115 13.2328 53.8871 13.7335C54.3677 14.3739 54.4226 14.2861 54.6521 15.1177C54.8594 15.8689 54.2893 16.0448 55.1858 16.6648C55.1791 16.9136 54.9765 17.6417 54.8605 17.836C54.584 17.8123 54.528 17.7002 54.204 17.7987C54.1157 17.9142 53.8247 18.4793 53.8098 18.6258C53.7785 18.9319 54.1266 19.1065 54.2427 19.3852C54.171 19.6005 54.1352 19.5135 54.0428 19.6961C53.9629 19.8543 53.9945 19.9448 53.9358 20.1349C53.6363 21.1059 53.072 20.6475 52.6407 20.9789C52.3665 21.1895 52.5561 21.5224 52.5353 21.8325L52.0948 21.9356C51.9816 22.6585 51.7609 22.4273 51.5739 22.7861C51.3716 23.1741 51.7617 23.3679 51.5333 23.947C51.4226 24.2278 51.3351 24.7234 51.0252 24.7969C50.7753 24.8562 50.6196 24.7559 50.336 24.812C50.0195 24.8746 50.0264 24.8653 49.6677 24.8836C49.6157 25.1453 49.5649 25.6948 49.5455 25.9498C49.5015 26.5288 49.3576 26.1638 49.4427 27.0494C49.6003 28.6918 49.0538 27.8543 49.4049 29.2068C49.5237 29.664 48.9734 30.8117 49.2836 31.2898C49.5583 31.713 49.3905 31.8565 49.3838 32.3444C49.3769 32.8385 49.6375 32.8508 49.7501 33.2328L49.5119 33.4241C49.5052 33.9076 49.674 34.4005 49.5505 34.8551C49.4541 35.2107 49.5317 35.0689 49.5205 35.329C49.5104 35.5648 49.4396 35.4149 49.3871 35.6948C49.3488 35.8989 49.4134 35.9742 49.4304 36.1609C49.4461 36.3326 49.4081 36.5391 49.436 36.6898C49.4768 36.911 49.5487 36.8514 49.6602 37.0529C49.488 37.5234 49.513 37.1194 49.451 37.8272C49.4163 38.2241 49.3203 38.3635 49.3517 38.8634L51.8365 38.8015C52.3006 38.7535 52.5367 38.8294 52.9982 38.7218C53.3677 38.6354 53.8636 38.659 54.2594 38.6399C55.6005 38.5754 57.6545 38.6523 58.6716 39.2181C59.6194 39.7456 60.0518 40.3637 60.3764 40.6088C60.9736 41.06 61.1048 41.5512 61.5373 42.0163C61.654 42.1421 61.6771 42.3333 61.7376 42.4741C61.8015 42.6229 61.8711 42.7257 61.9776 42.8279C62.2672 43.1063 62.0899 42.8549 62.2142 43.2449C62.2933 43.4936 62.5678 43.7235 62.8838 43.8329C63.3929 44.0092 63.5598 43.8091 63.994 43.7651C63.7942 44.1069 63.4649 43.9805 62.9985 44.0585C62.9011 44.6007 63.5205 46.4443 63.8168 47.0142C64.3172 47.9765 64.8145 48.3676 65.5965 49.0573C65.9343 49.3554 66.2013 49.3945 66.6208 49.5867C67.2088 49.8561 67.3703 49.6343 67.9326 49.6094C68.7125 49.575 68.1432 49.4467 69.3407 49.4317C69.3796 49.3481 69.3867 49.3128 69.4244 49.2013L69.5981 49.399C69.8936 49.4049 70.7287 49.4161 70.9493 49.2555L71.058 49.1653C71.24 49.0165 71.4862 49.3974 71.6926 49.1725C71.8094 48.8922 71.3718 48.61 71.5733 48.302C71.6188 48.3659 71.7604 48.7774 71.8097 48.873C72.1347 48.8566 72.0844 48.7958 72.3932 48.7681C72.243 49.0809 72.198 49.2036 72.6319 49.1683C73.0613 49.1336 73.0704 49.007 73.3043 48.8538C73.6059 48.7684 74.3733 49.0288 74.6334 48.6324L74.3803 48.5449C74.2751 48.5363 74.1665 48.563 74.0243 48.5515C73.7211 48.527 73.8021 48.4517 73.4236 48.5185L73.3149 48.326C73.1856 48.1402 73.2634 48.3758 73.1406 48.0667C73.87 48.1959 73.6448 48.4375 74.319 48.0923C74.3268 48.1062 74.3297 48.1152 74.3324 48.1384L74.4042 48.3101C74.5218 48.4629 75.049 48.5648 75.2206 48.5736C75.5694 48.5917 76.8446 48.2344 77.6618 48.2759C78.5738 48.3222 78.8086 47.9901 78.4484 47.1891C78.347 46.9639 78.0989 46.9301 78.2584 46.6656C78.4386 46.7818 78.3398 46.7837 78.5112 46.941C78.6031 47.0252 78.5467 46.9634 78.6507 47.0411C78.8507 47.1902 79.2355 47.5613 79.4522 47.6634C79.8388 47.4966 79.6279 47.3976 79.7948 47.0654C79.8989 46.8582 79.889 47.0613 79.9761 46.7707C80.1731 46.1132 80.2066 46.3847 80.4664 45.8302C80.6642 45.4077 80.5647 45.5235 80.8447 45.2464C81.1159 44.9781 81.0286 44.4245 81.1085 44.0698C81.1418 43.9216 81.1886 43.9273 81.2233 43.7185C81.3512 42.9495 81.3781 43.3197 81.4761 43.0004C81.5825 42.6541 81.2801 42.5472 81.1598 42.3055C81.2426 42.0993 81.2776 42.1696 81.3058 41.9962C81.3462 41.7493 81.2592 41.8892 81.2655 41.6031C81.5415 41.381 81.438 41.4306 81.8661 41.3734C82.0564 40.9584 82.4131 40.6605 82.6481 40.4274C82.9072 40.1705 83.35 39.8766 83.5375 39.5854C83.7672 39.2289 83.5236 39.3162 83.9671 39.1728C84.3621 39.0452 84.0972 38.9625 84.4197 38.7424C84.6514 38.5845 84.7093 38.6614 84.9232 38.4083C85.21 38.0689 85.1521 38.2252 85.549 38.1303L85.9944 36.8157C86.7526 36.7079 86.5135 36.7646 86.9916 36.3565C87.2085 36.1712 87.5537 35.7946 87.8085 35.736C88.1699 36.3735 87.7452 36.4126 89.6663 36.3278C89.9839 35.838 89.9721 35.3487 90.0765 35.213C90.2353 35.4362 90.1483 35.4165 90.4416 35.5537C90.6291 35.6413 90.8329 35.7046 90.9914 35.7797C91.6092 36.0727 91.2591 36.3584 91.5831 36.6818C91.9206 37.019 92.3678 36.702 92.4403 37.2988C92.6018 38.629 92.4692 38.7208 93.8953 38.5883C94.4314 38.5387 94.2686 38.2435 94.4649 37.9251C94.6565 37.6145 94.8626 37.9597 95.1365 37.3957C95.4405 36.7699 95.1783 36.7779 95.1679 36.3964C95.5345 36.0174 95.9941 35.7548 96.3426 35.4411C96.5806 35.2268 96.5901 35.3577 96.856 35.1956C96.8848 34.7686 96.4714 34.5266 96.3183 34.1878C96.5116 33.7659 97.0064 33.3301 97.2711 33.0261C98.0295 32.1554 97.205 32.4363 97.8415 31.5656C98.1635 31.1255 98.568 30.8141 98.4875 30.2384C98.4143 29.7164 98.6685 29.8004 98.7133 29.4067C98.7529 29.0584 98.5538 28.7881 98.7116 28.4443C98.8812 28.277 98.7524 28.3985 99.0136 28.3295C99.5544 28.187 99.5219 27.9595 99.5781 27.457C100.048 27.2 100.172 27.6002 100.817 27.1422C101.074 26.9599 101 26.8095 101.176 26.6703C101.42 26.4781 101.384 26.6863 101.549 26.1414C101.915 24.9292 101.692 25.0449 101.814 24.6729C101.878 24.4758 102.023 24.3015 102.09 24.1183C102.248 23.6874 102.085 23.6728 102.079 23.3246C102.296 23.1643 102.477 22.9316 102.708 22.8257C103.016 22.6844 103.362 22.7461 103.609 22.5324C103.853 22.3213 103.819 21.943 103.891 21.6247C104.074 20.8189 104.037 21.2574 103.777 20.6983C103.846 20.4764 103.904 20.5128 103.914 20.2804C103.925 20.0281 103.825 20.0859 103.924 19.849C104.159 19.6208 104.487 19.7837 104.781 19.5228C105.077 19.2595 104.966 18.9713 105.05 18.5449C105.151 18.0316 105.396 16.9863 105.625 16.6081C105.976 16.0285 106.449 15.7105 106.573 15.0343C106.618 14.7879 106.919 14.6021 107.08 14.3018C107.731 13.0928 107.986 13.9984 108.648 13.779C108.751 13.7447 109.229 13.418 109.373 13.316C109.658 13.1138 110.711 12.5873 110.87 12.4246C111.08 12.2093 111.137 11.8174 110.964 11.5685C110.599 11.0429 110.732 11.3803 110.908 10.7956C111.017 10.4346 111.065 10.2061 111.041 9.83125C111 9.20081 111.266 9.20866 111.278 8.82041C111.051 8.65175 111.004 8.73167 110.758 8.4927C110.579 8.31971 110.47 8.06455 110.407 8.01234C110.148 7.79883 109.248 7.85841 108.847 7.83103C108.778 7.68879 108.457 4.56127 107.963 3.88695L105.897 1.05927C105.639 0.824782 104.863 0.855856 104.456 0.867389C104.135 0.876518 104.082 0.970062 103.936 1.19558C103.842 1.33926 103.698 1.55981 103.632 1.72095C102.227 1.70285 102.649 1.95576 101.714 2.0107C101.587 2.62464 101.662 2.26089 101.332 2.5878C100.919 2.99864 101.273 2.77792 100.667 2.95107C100.27 3.06463 99.9498 3.81359 99.8377 4.13009C99.2364 4.1381 98.6483 3.8365 98.2572 3.93356C97.7336 4.06362 97.3842 3.66143 97.0059 3.44279C96.3772 3.07936 94.948 2.60029 94.016 2.6336C93.3908 2.65587 92.7942 2.67989 92.1668 2.64962C91.5485 2.61983 91.0605 2.49666 90.4323 2.60782C89.1525 2.83398 87.9373 3.07728 86.8406 3.67072C86.5178 3.84546 86.6008 3.94734 86.3679 4.15412C85.9774 4.50105 85.7402 4.76581 85.4617 5.10185C84.8855 5.79684 85.0146 5.48578 84.1087 5.45231C82.836 5.40522 82.0177 5.42829 80.7616 5.06502C79.8259 4.79433 80.1553 4.57521 79.6713 4.24238C79.375 4.03848 79.2483 4.16773 78.9193 4.10543C78.6183 4.04824 77.6946 3.12197 77.2154 2.94178C76.9653 2.84776 75.8364 2.69559 75.614 2.7627C75.3719 2.83574 74.7169 3.26724 74.4316 3.43911C74.0782 3.65166 73.5993 4.02982 73.1464 3.9656C72.0457 3.80959 72.544 4.28995 71.8849 4.53116C70.8393 4.91365 70.333 3.37648 69.9087 2.84551C69.5266 2.36772 68.4889 1.22986 67.9177 1.07385C67.2479 0.891096 67.6642 1.35351 66.475 0.908237C66.0069 0.733009 65.5715 0.563387 65.0884 0.375986C64.6356 0.200118 63.4587 -0.303141 62.9503 0.257781C62.7371 0.493234 62.8294 0.647317 62.3859 0.680313C62.1044 0.701295 61.8385 0.647477 61.5309 0.68768C60.322 0.84577 61.2501 0.293176 59.163 0.810531C57.4939 1.22441 58.1101 1.89874 56.6745 2.09719Z" fill="#339966"/>
<path fill-rule="evenodd" clip-rule="evenodd" d="M76.4695 35.5374C78.3403 35.5374 79.8569 37.0541 79.8569 38.9252C79.8569 40.796 78.3403 42.3127 76.4695 42.3127C74.5983 42.3127 73.082 40.796 73.082 38.9252C73.082 37.0541 74.5983 35.5374 76.4695 35.5374ZM58.2815 10.7523L62.7616 9.40763C64.0678 9.01568 65.445 9.58221 66.0439 10.8072L66.118 10.959C66.6844 12.1179 67.9421 12.7125 69.1973 12.4149L89.9917 7.4854C90.7973 7.29431 91.5668 7.45048 92.2342 7.94028C92.9018 8.42993 93.2816 9.11675 93.3413 9.9426L94.1444 21.06C94.2368 22.3426 93.4547 23.4854 92.2256 23.8636L71.811 30.1406C71.5218 30.279 71.295 30.5305 71.192 30.8442C71.0518 31.2711 71.1633 31.7401 71.4803 32.0578C71.7513 32.3293 72.1328 32.4512 72.5043 32.3941L72.6931 32.3494L93.587 27.3821C94.1411 27.2663 94.7145 27.4579 95.0878 27.8834C95.4607 28.3093 95.5756 28.9031 95.388 29.437C95.2358 29.8704 94.904 30.2098 94.4862 30.3754C94.3879 30.4097 94.2863 30.4387 94.1824 30.4619L71.6952 35.4673C70.908 35.6425 70.1627 35.489 69.5082 35.0178C68.8539 34.5464 68.4726 33.8877 68.3899 33.0855L68.0723 30.0142C67.9969 29.2811 68.2076 28.5858 68.6331 28.0465C69.3014 27.1987 69.4142 26.1108 68.9339 25.1442L63.4952 14.1974C63.0427 13.2862 62.1941 12.7329 61.1777 12.6863C60.6764 12.6633 59.2411 13.4321 58.3399 13.1351C57.7537 12.9421 57.2948 11.9471 57.5205 11.3742C57.6746 10.9842 57.9188 10.8685 58.2815 10.7523ZM92.7292 32.1499C94.6003 32.1499 96.1169 33.6666 96.1169 35.5374C96.1169 37.4086 94.6003 38.9252 92.7292 38.9252C90.8583 38.9252 89.3417 37.4086 89.3417 35.5374C89.3417 33.6666 90.8583 32.1499 92.7292 32.1499Z" fill="white"/>
<path d="M5.93981 37.3842H16.0596L19.0662 22.6444L22.073 37.3842H32.1928L38.1326 11.4246H29.3694L27.0228 27.7777L23.5028 11.4246H14.6296L11.1097 27.7777L8.76316 11.4246H0L5.93981 37.3842ZM39.8814 37.3842H48.0211V26.4211C48.0211 24.441 49.1212 23.2311 50.9178 23.2311C52.6778 23.2311 53.8144 24.441 53.8144 26.4211V37.3842H61.9176V25.3944C61.9176 20.0411 59.131 16.5578 54.3644 16.5578C51.2478 16.5578 49.1945 18.0612 48.0211 19.8579V10.2512H39.8814V37.3842ZM101.652 37.3842H109.792V10.2512H101.652V37.3842ZM121.734 22.8278C122.944 22.8278 124.044 23.4877 124.044 24.9177H119.204C119.461 23.4877 120.377 22.8278 121.734 22.8278ZM131.854 29.941H123.237C122.944 30.5642 122.394 31.1509 121.331 31.1509C120.231 31.1509 119.241 30.5642 119.131 28.4743H132.184C132.257 27.9609 132.294 27.3744 132.294 26.861C132.294 20.3712 127.931 16.4478 121.734 16.4478C115.537 16.4478 111.174 20.4444 111.174 27.0443C111.174 33.6442 115.537 37.6408 121.734 37.6408C126.941 37.6408 130.974 34.3409 131.854 29.941Z" fill="white"/>
<path d="M34.0261 47.8653C34.0261 44.2387 28.553 44.4883 28.553 43.0078C28.553 42.6085 28.786 42.4089 29.0854 42.4089C29.4847 42.4089 29.8672 42.6251 29.9005 43.3405H33.8765C33.7767 40.8949 31.9467 39.5309 29.1021 39.5309C26.5901 39.5309 24.5939 40.7618 24.5939 43.1242C24.5272 47.15 30.0836 46.5678 30.1001 48.1647C30.1001 48.5806 29.7508 48.7469 29.3848 48.7469C29.0189 48.7469 28.553 48.5971 28.4865 47.7322H24.5605C24.727 50.3773 26.8396 51.6249 29.5345 51.6249C32.3792 51.6249 34.0261 50.0278 34.0261 47.8653ZM34.3676 46.8171C34.3676 49.8449 36.0811 51.6249 38.2437 51.6249C39.4913 51.6249 40.3897 51.076 40.8388 50.2275V51.5084H44.5152V42.126H40.8388V43.4069C40.3897 42.5585 39.4913 42.0096 38.2437 42.0096C36.0811 42.0096 34.3676 43.7896 34.3676 46.8171ZM40.8388 46.8171C40.8388 47.8486 40.2399 48.3976 39.4746 48.3976C38.7095 48.3976 38.1106 47.8486 38.1106 46.8171C38.1106 45.7858 38.7095 45.2369 39.4746 45.2369C40.2399 45.2369 40.8388 45.7858 40.8388 46.8171ZM45.7217 51.5084H49.4147V39.1982H45.7217V51.5084ZM54.9131 44.9042C55.462 44.9042 55.9611 45.2036 55.9611 45.8524H53.7653C53.8818 45.2036 54.2976 44.9042 54.9131 44.9042ZM59.5045 48.1314H55.5951C55.462 48.4142 55.2125 48.6804 54.73 48.6804C54.2311 48.6804 53.7818 48.4142 53.732 47.466H59.6542C59.6875 47.2331 59.7042 46.9669 59.7042 46.734C59.7042 43.7896 57.7245 42.0096 54.9131 42.0096C52.1018 42.0096 50.1221 43.8229 50.1221 46.8171C50.1221 49.8116 52.1018 51.6249 54.9131 51.6249C57.2753 51.6249 59.1053 50.1277 59.5045 48.1314Z" fill="white"/>
<path d="M93.4657 39.7304V45.7524L89.5564 39.7304H85.8633V51.5083H89.5564V45.5861L93.4657 51.5083H97.1588V39.7304H93.4657ZM97.8661 46.817C97.8661 49.8448 99.5796 51.6248 101.742 51.6248C102.99 51.6248 103.888 51.0759 104.337 50.2274V51.5083H108.014V42.1259H104.337V43.4068C103.888 42.5584 102.99 42.0095 101.742 42.0095C99.5796 42.0095 97.8661 43.7895 97.8661 46.817ZM104.337 46.817C104.337 47.8486 103.738 48.3975 102.973 48.3975C102.208 48.3975 101.609 47.8486 101.609 46.817C101.609 45.7857 102.208 45.2368 102.973 45.2368C103.738 45.2368 104.337 45.7857 104.337 46.817ZM109.22 51.5083H112.913V42.1259H109.22V51.5083ZM111.083 41.3773C112.381 41.3773 113.196 40.5788 113.196 39.5642C113.196 38.5326 112.381 37.7175 111.083 37.7175C109.769 37.7175 108.954 38.5326 108.954 39.5642C108.954 40.5788 109.769 41.3773 111.083 41.3773ZM115.95 41.3773C117.247 41.3773 118.062 40.5788 118.062 39.5642C118.062 38.5326 117.247 37.7175 115.95 37.7175C114.635 37.7175 113.82 38.5326 113.82 39.5642C113.82 40.5788 114.635 41.3773 115.95 41.3773ZM114.12 42.1259V52.2237C114.12 52.6561 113.92 52.8559 113.438 52.8559H112.722V55.9999H113.953C116.149 55.9999 117.813 55.0683 117.813 52.1572V42.1259H114.12ZM118.487 46.817C118.487 49.8448 120.2 51.6248 122.363 51.6248C123.61 51.6248 124.509 51.0759 124.958 50.2274V51.5083H128.634V42.1259H124.958V43.4068C124.509 42.5584 123.61 42.0095 122.363 42.0095C120.2 42.0095 118.487 43.7895 118.487 46.817ZM124.958 46.817C124.958 47.8486 124.359 48.3975 123.594 48.3975C122.829 48.3975 122.23 47.8486 122.23 46.817C122.23 45.7857 122.829 45.2368 123.594 45.2368C124.359 45.2368 124.958 45.7857 124.958 46.817Z" fill="#339966"/>
</svg>
