<svg width="56" height="56" viewBox="0 0 56 56" fill="none" xmlns="http://www.w3.org/2000/svg">
<rect width="56" height="56" rx="28" fill="white" fill-opacity="0.1"/>
<path d="M23.9131 15.1016C26.6472 15.0329 29.3548 15.0329 32.0889 15.1016L32.1699 15.1035C34.3047 15.1571 36.0228 15.2007 37.3994 15.4404C38.8406 15.6914 40.0124 16.1727 41.002 17.166C41.9872 18.1552 42.4657 19.3098 42.7119 20.7275C42.9464 22.0776 42.9821 23.7533 43.0264 25.8291L43.0283 25.9121C43.0581 27.3067 43.0581 28.6933 43.0283 30.0879L43.0264 30.1699C42.9821 32.2459 42.9464 33.9223 42.7119 35.2725C42.4657 36.6902 41.9872 37.8449 41.002 38.834C40.0124 39.8273 38.8406 40.3086 37.3994 40.5596C36.0228 40.7993 34.3046 40.8429 32.1699 40.8965L32.0889 40.8984C29.3548 40.9671 26.6472 40.9671 23.9131 40.8984L23.8311 40.8965C21.6964 40.8429 19.9782 40.7993 18.6016 40.5596C17.1605 40.3085 15.9895 39.8272 15 38.834C14.0146 37.8448 13.5353 36.6903 13.2891 35.2725C13.0546 33.9224 13.0188 32.2467 12.9746 30.1709L12.9727 30.0879C12.9429 28.6933 12.9429 27.3067 12.9727 25.9121L12.9746 25.8291C13.0188 23.7533 13.0546 22.0776 13.2891 20.7275C13.5353 19.3096 14.0145 18.1552 15 17.166C15.9895 16.1728 17.1605 15.6915 18.6016 15.4404C19.9782 15.2007 21.6964 15.1571 23.8311 15.1035L23.9131 15.1016ZM35.9043 22.5654C35.6091 22.0666 34.9658 21.9014 34.4668 22.1963L30.3477 24.6318C29.1658 25.3306 28.5371 25.5498 28.001 25.5498C27.4648 25.5498 26.8362 25.3306 25.6543 24.6318L21.5352 22.1963C21.036 21.9012 20.3918 22.0663 20.0967 22.5654C19.8015 23.0646 19.9676 23.7088 20.4668 24.0039L24.585 26.4395C25.8041 27.1603 26.8566 27.6504 28.001 27.6504C29.1451 27.6503 30.1971 27.1601 31.416 26.4395L35.5352 24.0039C36.0343 23.7088 36.1994 23.0646 35.9043 22.5654Z" fill="white"/>
</svg>
