<svg width="40" height="39" viewBox="0 0 40 39" fill="none" xmlns="http://www.w3.org/2000/svg">
<path d="M14.3741 0.321749C15.0809 0.753845 15.3036 1.67711 14.8715 2.38393C14.558 2.89683 14.6366 3.55775 15.0616 3.98283L15.2574 4.17859C16.4347 5.35591 16.8688 7.08546 16.3871 8.67921C16.1474 9.4722 15.3102 9.92073 14.5172 9.68102C13.7242 9.44132 13.2757 8.60416 13.5154 7.81117C13.6772 7.276 13.5314 6.69524 13.1361 6.29991L12.9403 6.10415C11.5353 4.69911 11.2755 2.5145 12.3119 0.819169C12.744 0.112355 13.6673 -0.110347 14.3741 0.321749Z" fill="#00AB47"/>
<path d="M29.3801 5.48668C30.1924 5.64915 30.7192 6.43939 30.5568 7.25173L30.2688 8.6916C29.8725 10.6732 28.4447 12.2906 26.5275 12.9296C25.6317 13.2282 24.9645 13.984 24.7794 14.9099L24.4914 16.3498C24.3289 17.1622 23.5387 17.689 22.7263 17.5265C21.914 17.364 21.3872 16.5738 21.5496 15.7615L21.8376 14.3216C22.2339 12.34 23.6617 10.7226 25.5789 10.0836C26.4747 9.78496 27.1419 9.02922 27.3271 8.10325L27.615 6.66338C27.7775 5.85104 28.5677 5.32422 29.3801 5.48668Z" fill="#00AB47"/>
<path d="M36.819 23.1624C36.0956 22.8461 35.2543 22.979 34.6635 23.5028C33.045 24.938 30.6897 25.1766 28.8163 24.095L28.3906 23.8492C27.6732 23.435 27.4274 22.5176 27.8416 21.8002C28.2558 21.0827 29.1732 20.8369 29.8906 21.2511L30.3163 21.4969C31.0714 21.9328 32.0207 21.8367 32.6731 21.2582C34.1388 19.9586 36.226 19.6289 38.0208 20.4137L38.6038 20.6686C39.3629 21.0005 39.7091 21.8848 39.3773 22.6439C39.0454 23.4029 38.161 23.7492 37.402 23.4173L36.819 23.1624Z" fill="#00AB47"/>
<path d="M7.85717 3.92508C8.27611 3.50614 8.95534 3.50614 9.37428 3.92508C9.79322 4.34402 9.79322 5.02325 9.37428 5.44219C8.95534 5.86112 8.27611 5.86112 7.85717 5.44219C7.43823 5.02325 7.43823 4.34402 7.85717 3.92508Z" fill="#00AB47"/>
<path d="M19.8333 10.3577C19.4143 9.93876 18.7351 9.93876 18.3162 10.3577C17.8972 10.7766 17.8972 11.4559 18.3162 11.8748C18.7351 12.2937 19.4143 12.2937 19.8333 11.8748C20.2522 11.4559 20.2522 10.7766 19.8333 10.3577Z" fill="#00AB47"/>
<path d="M28.3162 16.3577C28.7351 15.9388 29.4143 15.9388 29.8333 16.3577C30.2522 16.7766 30.2522 17.4559 29.8333 17.8748C29.4143 18.2937 28.7351 18.2937 28.3162 17.8748C27.8972 17.4559 27.8972 16.7766 28.3162 16.3577Z" fill="#00AB47"/>
<path d="M33.635 26.6702C33.2161 26.2513 32.5368 26.2513 32.1179 26.6702C31.699 27.0891 31.699 27.7684 32.1179 28.1873C32.5368 28.6062 33.2161 28.6062 33.635 28.1873C34.054 27.7684 34.054 27.0891 33.635 26.6702Z" fill="#00AB47"/>
<path d="M8.94497 36.5264C4.42185 38.0176 2.03873 38.6416 0.720437 37.3233C-0.739325 35.8635 0.18248 33.0981 2.02609 27.5673L5.40508 17.4303C6.66911 13.6382 7.41168 11.4105 8.6508 10.5068L8.64036 10.5585C8.62594 10.6303 8.60507 10.7352 8.5788 10.8702C8.52625 11.1402 8.45203 11.5306 8.36439 12.017C8.18921 12.989 7.95982 14.3474 7.74265 15.8952C7.31237 18.9616 6.91386 22.8796 7.11916 26.0104C7.24339 27.9049 7.63754 30.255 7.98929 32.0914C8.16682 33.0182 8.33677 33.8304 8.46241 34.4113C8.52527 34.702 8.57715 34.9352 8.61347 35.0965L8.65575 35.2827L8.94497 36.5264Z" fill="#00AB47"/>
<path d="M20.0797 32.8166L20.6134 32.6386C25.2095 31.1066 27.5075 30.3406 27.9354 28.5281C28.3633 26.7156 26.6504 25.0027 23.2247 21.577L19.8462 18.1985L19.8368 18.2281C19.7976 18.3517 19.7408 18.5338 19.6723 18.7626C19.5351 19.2209 19.3521 19.8627 19.1693 20.5944C18.7953 22.092 18.4559 23.8382 18.4559 25.1541C18.4559 26.47 18.7953 28.2162 19.1693 29.7139C19.3521 30.4455 19.5351 31.0874 19.6723 31.5457C19.7408 31.7745 19.7976 31.9566 19.8368 32.0802C19.8564 32.142 19.8716 32.1891 19.8817 32.22L19.8928 32.2541L19.8953 32.2617L20.0797 32.8166Z" fill="#00AB47"/>
<path d="M11.6013 11.0522L11.7026 10.5616C12.9281 11.2804 14.3795 12.7318 16.4667 14.819L17.4724 15.8247L17.0469 17.1048L17.0287 17.1605C17.0166 17.1978 16.9992 17.2517 16.9773 17.3206C16.9336 17.4582 16.872 17.6561 16.7983 17.9022C16.6512 18.3937 16.4551 19.0812 16.2587 19.8675C15.8746 21.4059 15.4559 23.4505 15.4559 25.1541C15.4559 26.8577 15.8746 28.9023 16.2587 30.4407C16.4551 31.2271 16.6512 31.9145 16.7983 32.406C16.872 32.6521 16.9336 32.85 16.9773 32.9877C16.9992 33.0565 17.0166 33.1104 17.0287 33.1478L17.2337 33.7652L11.8038 35.5752L11.5901 34.6569L11.58 34.6127L11.5401 34.4373C11.5055 34.2835 11.4555 34.0587 11.3946 33.7772C11.2728 33.2138 11.1078 32.4254 10.9357 31.527C10.5882 29.7129 10.2242 27.514 10.1127 25.8141C9.92863 23.0065 10.2883 19.3427 10.7135 16.312C10.9241 14.8113 11.1468 13.4923 11.3168 12.549C11.4018 12.0777 11.4734 11.7011 11.5235 11.4433C11.5486 11.3145 11.5683 11.2155 11.5816 11.1493L11.5966 11.075L11.6003 11.057L11.6013 11.0522Z" fill="#00AB47"/>
<path d="M23.909 0.464345C24.2124 0.42411 24.7654 0.404784 25.2049 0.844314C25.6444 1.28384 25.6251 1.83682 25.5849 2.14017C25.5468 2.42686 25.4491 2.77033 25.356 3.09754L25.2844 3.34955L25.4137 3.55446C25.5887 3.8316 25.7768 4.12934 25.8919 4.39417C26.0217 4.6929 26.1694 5.19714 25.891 5.72692C25.6179 6.24659 25.1289 6.4176 24.8178 6.48834C24.5347 6.55271 24.1807 6.58021 23.844 6.60637L23.589 6.62627L23.5677 6.62795L23.384 6.85107C23.1647 7.11767 22.9371 7.39434 22.7225 7.59055C22.4953 7.79841 22.0684 8.11887 21.4739 8.03747C20.8591 7.95329 20.5403 7.5081 20.386 7.2299C20.2463 6.978 20.124 6.64639 20.01 6.33739L19.9296 6.11965L19.7118 6.03922C19.4028 5.92521 19.0712 5.80288 18.8193 5.66317C18.5411 5.50889 18.0959 5.19012 18.0117 4.57534C17.9303 3.98085 18.2508 3.5539 18.4587 3.32666C18.6549 3.11215 18.9315 2.88453 19.1981 2.66519L19.4213 2.48149L19.4229 2.46024L19.4428 2.20522C19.469 1.86855 19.4965 1.51451 19.5609 1.23141C19.6316 0.920281 19.8026 0.431343 20.3223 0.158213C20.8521 -0.12023 21.3563 0.0274971 21.655 0.157333C21.9199 0.272452 22.2177 0.460511 22.4948 0.63557L22.6997 0.764843L22.9517 0.693227C23.2789 0.600114 23.6223 0.50237 23.909 0.464345Z" fill="#00AB47"/>
<path d="M38.2813 17.0281C39.2156 16.0938 39.5609 14.8361 39.0492 13.7283C38.661 12.8879 37.8755 12.3414 36.9109 12.1355C36.7051 11.1709 36.1585 10.3854 35.3181 9.99722C34.2103 9.48551 32.9526 9.83084 32.0184 10.7651C31.4766 11.3069 31.2312 12.0329 31.1162 12.6794C30.9986 13.3408 30.9963 14.04 31.0355 14.6524C31.0751 15.2709 31.1596 15.8381 31.2333 16.2481C31.2703 16.4542 31.3051 16.6233 31.331 16.7424C31.344 16.8021 31.3548 16.8494 31.3626 16.8828C31.4517 17.2429 31.7465 17.5811 32.1067 17.6702L32.1089 17.6708L32.1637 17.6838C32.197 17.6916 32.2444 17.7024 32.304 17.7154C32.4231 17.7413 32.5922 17.7761 32.7983 17.8131C33.2083 17.8868 33.7755 17.9713 34.394 18.0109C35.0065 18.0501 35.7056 18.0478 36.367 17.9302C37.0135 17.8152 37.7396 17.5698 38.2813 17.0281Z" fill="#00AB47"/>
</svg>
