<svg width="28" height="40" viewBox="0 0 28 40" fill="none" xmlns="http://www.w3.org/2000/svg">
<path fill-rule="evenodd" clip-rule="evenodd" d="M0.3965 2.59836C1.60092 0 5.73395 0 14 0C22.2661 0 26.3991 0 27.6035 2.59836C27.707 2.82171 27.7944 3.05371 27.8647 3.29219C28.6829 6.06659 25.7604 9.28222 19.9154 15.7135L16 20L19.9154 24.2865C25.7604 30.7178 28.6829 33.9334 27.8647 36.7078C27.7944 36.9463 27.707 37.1783 27.6035 37.4016C26.3991 40 22.2661 40 14 40C5.73395 40 1.60092 40 0.3965 37.4016C0.292971 37.1783 0.205634 36.9463 0.135305 36.7078C-0.682868 33.9334 2.23962 30.7178 8.08461 24.2865L12 20L8.08461 15.7135C2.23962 9.28222 -0.682868 6.06659 0.135305 3.29219C0.205634 3.05371 0.292971 2.82171 0.3965 2.59836ZM10 31.5C9.17157 31.5 8.5 32.1716 8.5 33C8.5 33.8284 9.17157 34.5 10 34.5H18C18.8284 34.5 19.5 33.8284 19.5 33C19.5 32.1716 18.8284 31.5 18 31.5H10ZM8.5 7C8.5 6.17157 9.17157 5.5 10 5.5H18C18.8284 5.5 19.5 6.17157 19.5 7C19.5 7.82843 18.8284 8.5 18 8.5H10C9.17157 8.5 8.5 7.82843 8.5 7Z" fill="#B38F00"/>
</svg>
