<svg width="19" height="10" viewBox="0 0 19 10" fill="none" xmlns="http://www.w3.org/2000/svg">
<path d="M1.10653 1.65484C0.925485 2.01573 0.836446 2.46093 0.658367 3.35133L0.0604455 6.34093C-0.318147 8.23389 1.12971 10 3.06016 10C4.63179 10 5.94772 8.8091 6.1041 7.24527L6.17312 6.55515C6.01002 8.40381 7.46714 10 9.32841 10C11.2023 10 12.6666 8.382 12.4801 6.51737L12.5531 7.24527C12.7095 8.8091 14.0255 10 15.5971 10C17.5275 10 18.9754 8.23389 18.5968 6.34093L17.9989 3.35133C17.8208 2.46095 17.7318 2.01573 17.5507 1.65484C17.1692 0.894393 16.4828 0.331675 15.6624 0.106747C15.273 0 14.8189 0 13.9109 0H11.8284H4.74633C3.8383 0 3.38428 0 2.99489 0.106747C2.1744 0.331675 1.488 0.894393 1.10653 1.65484Z" fill="#001A2B"/>
</svg>
